FILE "Monster Slider (Japan) (Track 01).bin" BINARY
  TRACK 01 MODE1/2352
    INDEX 01 00:00:00
FILE "Monster Slider (Japan) (Track 02).bin" BINARY
  TRACK 02 AUDIO
    INDEX 00 00:00:00
    INDEX 01 00:02:00
FILE "Monster Slider (Japan) (Track 03).bin" BINARY
  TRACK 03 AUDIO
    INDEX 00 00:00:00
    INDEX 01 00:02:00
    INDEX 02 00:02:45
    INDEX 03 00:04:08
    INDEX 04 00:04:50
    INDEX 05 00:06:13
    INDEX 06 00:06:63
    INDEX 07 00:08:26
    INDEX 08 00:09:21
    INDEX 09 00:10:59
    INDEX 10 00:11:54
    INDEX 11 00:13:17
    INDEX 12 00:14:24
    INDEX 13 00:15:62
    INDEX 14 00:20:01
    INDEX 15 00:21:39
    INDEX 16 00:22:42
    INDEX 17 00:24:05
    INDEX 18 00:25:29
    INDEX 19 00:26:67
    INDEX 20 00:28:14
    INDEX 21 00:29:52
    INDEX 22 00:30:67
    INDEX 23 00:32:30
    INDEX 24 00:33:60
FILE "Monster Slider (Japan) (Track 04).bin" BINARY
  TRACK 04 AUDIO
    INDEX 00 00:00:00
    INDEX 01 00:02:00
    INDEX 02 00:03:25
    INDEX 03 00:04:63
    INDEX 04 00:06:13
    INDEX 05 00:07:51
    INDEX 06 00:08:30
    INDEX 07 00:09:68
    INDEX 08 00:10:52
    INDEX 09 00:12:15
    INDEX 10 00:13:17
    INDEX 11 00:14:55
    INDEX 12 00:16:26
    INDEX 13 00:17:64
    INDEX 14 00:21:64
    INDEX 15 00:23:27
    INDEX 16 00:24:40
    INDEX 17 00:26:03
    INDEX 18 00:28:56
    INDEX 19 00:30:19
    INDEX 20 00:32:08
    INDEX 21 00:33:46
    INDEX 22 00:35:14
    INDEX 23 00:36:52
    INDEX 24 00:38:56
FILE "Monster Slider (Japan) (Track 05).bin" BINARY
  TRACK 05 AUDIO
    INDEX 00 00:00:00
    INDEX 01 00:02:00
    INDEX 02 00:02:44
    INDEX 03 00:04:07
    INDEX 04 00:06:10
    INDEX 05 00:07:48
    INDEX 06 00:09:35
    INDEX 07 00:10:73
    INDEX 08 00:13:08
    INDEX 09 00:14:46
    INDEX 10 00:17:05
    INDEX 11 00:18:43
    INDEX 12 00:20:55
    INDEX 13 00:22:18
    INDEX 14 00:25:12
    INDEX 15 00:26:50
    INDEX 16 00:28:13
    INDEX 17 00:29:51
    INDEX 18 00:30:60
    INDEX 19 00:32:23
    INDEX 20 00:33:41
    INDEX 21 00:35:04
    INDEX 22 00:36:50
    INDEX 23 00:38:13
    INDEX 24 00:39:35
FILE "Monster Slider (Japan) (Track 06).bin" BINARY
  TRACK 06 AUDIO
    INDEX 00 00:00:00
    INDEX 01 00:02:00
    INDEX 02 00:02:65
    INDEX 03 00:04:28
    INDEX 04 00:05:42
    INDEX 05 00:07:05
    INDEX 06 00:08:11
    INDEX 07 00:09:49
    INDEX 08 00:10:72
    INDEX 09 00:12:35
    INDEX 10 00:13:64
    INDEX 11 00:15:27
    INDEX 12 00:16:19
    INDEX 13 00:17:57
    INDEX 14 00:23:24
    INDEX 15 00:24:62
    INDEX 16 00:25:52
    INDEX 17 00:27:15
    INDEX 18 00:27:61
    INDEX 19 00:29:24
    INDEX 20 00:30:43
    INDEX 21 00:32:06
    INDEX 22 00:33:11
    INDEX 23 00:34:49
    INDEX 24 00:35:63
FILE "Monster Slider (Japan) (Track 07).bin" BINARY
  TRACK 07 AUDIO
    INDEX 00 00:00:00
    INDEX 01 00:02:00
    INDEX 02 00:02:73
    INDEX 03 00:04:36
    INDEX 04 00:05:17
    INDEX 05 00:06:55
    INDEX 06 00:07:56
    INDEX 07 00:09:19
    INDEX 08 00:10:39
    INDEX 09 00:12:02
    INDEX 10 00:12:55
    INDEX 11 00:14:18
    INDEX 12 00:15:42
    INDEX 13 00:17:05
    INDEX 14 00:20:63
    INDEX 15 00:22:26
    INDEX 16 00:23:62
    INDEX 17 00:25:25
    INDEX 18 00:26:65
    INDEX 19 00:28:28
    INDEX 20 00:29:27
    INDEX 21 00:30:65
    INDEX 22 00:32:65
    INDEX 23 00:34:28
    INDEX 24 00:35:53
FILE "Monster Slider (Japan) (Track 08).bin" BINARY
  TRACK 08 AUDIO
    INDEX 00 00:00:00
    INDEX 01 00:02:00
    INDEX 02 00:02:55
    INDEX 03 00:04:18
    INDEX 04 00:05:17
    INDEX 05 00:06:55
    INDEX 06 00:07:37
    INDEX 07 00:09:00
    INDEX 08 00:09:63
    INDEX 09 00:11:26
    INDEX 10 00:12:33
    INDEX 11 00:13:71
    INDEX 12 00:15:24
    INDEX 13 00:16:62
    INDEX 14 00:20:72
    INDEX 15 00:22:35
    INDEX 16 00:23:48
    INDEX 17 00:25:11
    INDEX 18 00:26:13
    INDEX 19 00:27:51
    INDEX 20 00:28:74
    INDEX 21 00:30:37
    INDEX 22 00:31:28
    INDEX 23 00:32:66
    INDEX 24 00:34:12
FILE "Monster Slider (Japan) (Track 09).bin" BINARY
  TRACK 09 AUDIO
    INDEX 00 00:00:00
    INDEX 01 00:02:00
    INDEX 02 00:02:44
    INDEX 03 00:04:07
    INDEX 04 00:05:10
    INDEX 05 00:06:48
    INDEX 06 00:07:12
    INDEX 07 00:08:50
    INDEX 08 00:09:31
    INDEX 09 00:10:69
    INDEX 10 00:12:32
    INDEX 11 00:13:70
    INDEX 12 00:14:73
    INDEX 13 00:16:36
    INDEX 14 00:19:27
    INDEX 15 00:20:65
    INDEX 16 00:21:42
    INDEX 17 00:23:05
    INDEX 18 00:24:02
    INDEX 19 00:25:40
    INDEX 20 00:26:62
    INDEX 21 00:28:25
    INDEX 22 00:29:64
    INDEX 23 00:31:27
    INDEX 24 00:32:12
FILE "Monster Slider (Japan) (Track 10).bin" BINARY
  TRACK 10 AUDIO
    INDEX 00 00:00:00
    INDEX 01 00:02:00
    INDEX 02 00:06:18
    INDEX 03 00:07:56
    INDEX 04 00:09:36
    INDEX 05 00:10:74
    INDEX 06 00:12:07
    INDEX 07 00:13:45
    INDEX 08 00:14:49
    INDEX 09 00:16:12
    INDEX 10 00:17:72
    INDEX 11 00:19:35
    INDEX 12 00:22:57
    INDEX 13 00:24:20
    INDEX 14 00:29:05
    INDEX 15 00:30:43
    INDEX 16 00:31:38
    INDEX 17 00:33:01
    INDEX 18 00:35:47
    INDEX 19 00:37:10
    INDEX 20 00:39:34
    INDEX 21 00:40:72
    INDEX 22 00:46:46
    INDEX 23 00:48:09
    INDEX 24 00:50:41
FILE "Monster Slider (Japan) (Track 11).bin" BINARY
  TRACK 11 AUDIO
    INDEX 00 00:00:00
    INDEX 01 00:02:00
    INDEX 02 00:03:09
    INDEX 03 00:04:47
    INDEX 04 00:05:25
    INDEX 05 00:06:63
    INDEX 06 00:07:58
    INDEX 07 00:09:21
    INDEX 08 00:10:17
    INDEX 09 00:11:55
    INDEX 10 00:12:32
    INDEX 11 00:13:70
    INDEX 12 00:16:11
    INDEX 13 00:17:49
    INDEX 14 00:20:27
    INDEX 15 00:21:65
    INDEX 16 00:23:72
    INDEX 17 00:25:35
    INDEX 18 00:26:70
    INDEX 19 00:28:33
    INDEX 20 00:30:30
    INDEX 21 00:31:68
    INDEX 22 00:33:10
    INDEX 23 00:34:48
    INDEX 24 00:37:17
FILE "Monster Slider (Japan) (Track 12).bin" BINARY
  TRACK 12 AUDIO
    INDEX 00 00:00:00
    INDEX 01 00:02:00
    INDEX 02 00:03:25
    INDEX 03 00:04:63
    INDEX 04 00:06:41
    INDEX 05 00:08:04
    INDEX 06 00:08:73
    INDEX 07 00:10:36
    INDEX 08 00:11:49
    INDEX 09 00:13:12
    INDEX 10 00:14:21
    INDEX 11 00:15:59
    INDEX 12 00:17:73
    INDEX 13 00:19:36
    INDEX 14 00:23:04
    INDEX 15 00:24:42
    INDEX 16 00:26:15
    INDEX 17 00:27:53
    INDEX 18 00:28:54
    INDEX 19 00:30:17
    INDEX 20 00:31:61
    INDEX 21 00:33:24
    INDEX 22 00:35:26
    INDEX 23 00:36:64
    INDEX 24 00:38:69
FILE "Monster Slider (Japan) (Track 13).bin" BINARY
  TRACK 13 AUDIO
    INDEX 00 00:00:00
    INDEX 01 00:02:00
    INDEX 02 00:03:34
    INDEX 03 00:04:72
    INDEX 04 00:06:20
    INDEX 05 00:07:58
    INDEX 06 00:08:42
    INDEX 07 00:10:05
    INDEX 08 00:10:61
    INDEX 09 00:12:24
    INDEX 10 00:13:26
    INDEX 11 00:14:64
    INDEX 12 00:16:33
    INDEX 13 00:17:71
    INDEX 14 00:22:32
    INDEX 15 00:23:70
    INDEX 16 00:24:46
    INDEX 17 00:26:09
    INDEX 18 00:28:42
    INDEX 19 00:30:05
    INDEX 20 00:31:64
    INDEX 21 00:33:27
    INDEX 22 00:35:28
    INDEX 23 00:36:66
    INDEX 24 00:38:51
FILE "Monster Slider (Japan) (Track 14).bin" BINARY
  TRACK 14 AUDIO
    INDEX 00 00:00:00
    INDEX 01 00:02:00
    INDEX 02 00:02:33
    INDEX 03 00:03:71
    INDEX 04 00:05:08
    INDEX 05 00:06:46
    INDEX 06 00:08:18
    INDEX 07 00:09:56
    INDEX 08 00:10:60
    INDEX 09 00:12:23
    INDEX 10 00:13:50
    INDEX 11 00:15:13
    INDEX 12 00:16:40
    INDEX 13 00:18:03
    INDEX 14 00:21:65
    INDEX 15 00:23:28
    INDEX 16 00:25:01
    INDEX 17 00:26:39
    INDEX 18 00:28:26
    INDEX 19 00:29:64
    INDEX 20 00:32:04
    INDEX 21 00:33:42
    INDEX 22 00:35:33
    INDEX 23 00:36:71
    INDEX 24 00:39:34
FILE "Monster Slider (Japan) (Track 15).bin" BINARY
  TRACK 15 AUDIO
    INDEX 00 00:00:00
    INDEX 01 00:02:00
    INDEX 02 00:03:01
    INDEX 03 00:04:39
    INDEX 04 00:05:24
    INDEX 05 00:06:62
    INDEX 06 00:07:44
    INDEX 07 00:09:07
    INDEX 08 00:10:16
    INDEX 09 00:11:54
    INDEX 10 00:12:54
    INDEX 11 00:14:17
    INDEX 12 00:16:54
    INDEX 13 00:18:17
    INDEX 14 00:22:70
    INDEX 15 00:24:33
    INDEX 16 00:25:54
    INDEX 17 00:27:17
    INDEX 18 00:28:38
    INDEX 19 00:30:01
    INDEX 20 00:31:62
    INDEX 21 00:33:25
    INDEX 22 00:34:73
    INDEX 23 00:36:36
    INDEX 24 00:39:17
FILE "Monster Slider (Japan) (Track 16).bin" BINARY
  TRACK 16 AUDIO
    INDEX 00 00:00:00
    INDEX 01 00:02:00
    INDEX 02 00:09:65
    INDEX 03 00:11:28
    INDEX 04 00:14:14
    INDEX 05 00:15:52
    INDEX 06 00:22:26
    INDEX 07 00:23:64
    INDEX 08 00:26:65
    INDEX 09 00:28:28
    INDEX 10 00:32:65
FILE "Monster Slider (Japan) (Track 17).bin" BINARY
  TRACK 17 AUDIO
    INDEX 00 00:00:00
    INDEX 01 00:02:00
    INDEX 02 00:05:58
    INDEX 03 00:07:21
    INDEX 04 00:08:41
    INDEX 05 00:10:04
    INDEX 06 00:15:00
    INDEX 07 00:16:38
    INDEX 08 00:20:60
    INDEX 09 00:22:23
    INDEX 10 00:25:05
    INDEX 11 00:26:43
    INDEX 12 00:29:32
    INDEX 13 00:30:70
    INDEX 14 00:33:71
FILE "Monster Slider (Japan) (Track 18).bin" BINARY
  TRACK 18 AUDIO
    INDEX 00 00:00:00
    INDEX 01 00:02:00
    INDEX 02 00:06:42
    INDEX 03 00:08:05
    INDEX 04 00:10:17
    INDEX 05 00:11:55
    INDEX 06 00:12:33
    INDEX 07 00:13:71
    INDEX 08 00:14:59
    INDEX 09 00:16:22
    INDEX 10 00:21:45
    INDEX 11 00:23:08
    INDEX 12 00:25:57
FILE "Monster Slider (Japan) (Track 19).bin" BINARY
  TRACK 19 AUDIO
    INDEX 00 00:00:00
    INDEX 01 00:02:00
    INDEX 02 00:04:27
    INDEX 03 00:05:65
    INDEX 04 00:09:74
    INDEX 05 00:11:37
    INDEX 06 00:27:41
    INDEX 07 00:29:04
    INDEX 08 00:32:72
    INDEX 09 00:34:35
    INDEX 10 00:35:66
FILE "Monster Slider (Japan) (Track 20).bin" BINARY
  TRACK 20 AUDIO
    INDEX 00 00:00:00
    INDEX 01 00:02:00
    INDEX 02 00:04:18
    INDEX 03 00:05:56
    INDEX 04 00:06:51
    INDEX 05 00:08:14
    INDEX 06 00:09:46
    INDEX 07 00:11:09
    INDEX 08 00:12:03
    INDEX 09 00:13:41
    INDEX 10 00:14:60
    INDEX 11 00:16:23
    INDEX 12 00:17:37
    INDEX 13 00:19:00
    INDEX 14 00:20:56
    INDEX 15 00:22:19
    INDEX 16 00:23:13
FILE "Monster Slider (Japan) (Track 21).bin" BINARY
  TRACK 21 AUDIO
    INDEX 00 00:00:00
    INDEX 01 00:02:00
    INDEX 02 00:03:44
    INDEX 03 00:05:07
    INDEX 04 00:09:47
    INDEX 05 00:11:10
    INDEX 06 00:12:06
    INDEX 07 00:13:44
    INDEX 08 00:16:00
    INDEX 09 00:17:38
    INDEX 10 00:20:16
    INDEX 11 00:21:54
    INDEX 12 00:26:06
    INDEX 13 00:27:44
    INDEX 14 00:30:37
    INDEX 15 00:32:00
    INDEX 16 00:33:37
    INDEX 17 00:35:00
    INDEX 18 00:40:03
    INDEX 19 00:41:41
    INDEX 20 00:43:42
FILE "Monster Slider (Japan) (Track 22).bin" BINARY
  TRACK 22 AUDIO
    INDEX 00 00:00:00
    INDEX 01 00:02:00
    INDEX 02 00:17:48
    INDEX 03 00:19:11
    INDEX 04 00:23:54
    INDEX 05 00:25:17
    INDEX 06 00:37:13
    INDEX 07 00:38:51
    INDEX 08 00:39:69
    INDEX 09 00:41:32
    INDEX 10 00:45:13
FILE "Monster Slider (Japan) (Track 23).bin" BINARY
  TRACK 23 AUDIO
    INDEX 00 00:00:00
    INDEX 01 00:02:00
    INDEX 02 00:05:59
    INDEX 03 00:07:22
    INDEX 04 00:11:54
    INDEX 05 00:13:17
    INDEX 06 00:15:49
    INDEX 07 00:17:12
    INDEX 08 00:23:66
    INDEX 09 00:25:29
    INDEX 10 00:26:57
    INDEX 11 00:28:20
    INDEX 12 00:30:57
    INDEX 13 00:32:20
    INDEX 14 00:34:44
    INDEX 15 00:36:07
    INDEX 16 00:37:30
FILE "Monster Slider (Japan) (Track 24).bin" BINARY
  TRACK 24 AUDIO
    INDEX 00 00:00:00
    INDEX 01 00:02:00
    INDEX 02 00:03:59
    INDEX 03 00:05:22
    INDEX 04 00:09:71
    INDEX 05 00:11:34
    INDEX 06 00:13:41
    INDEX 07 00:15:04
    INDEX 08 00:19:64
    INDEX 09 00:21:27
    INDEX 10 00:24:03
    INDEX 11 00:25:41
    INDEX 12 00:30:24
FILE "Monster Slider (Japan) (Track 25).bin" BINARY
  TRACK 25 AUDIO
    INDEX 00 00:00:00
    INDEX 01 00:02:00
    INDEX 02 00:06:74
    INDEX 03 00:08:37
    INDEX 04 00:09:23
    INDEX 05 00:10:61
    INDEX 06 00:16:11
    INDEX 07 00:17:49
    INDEX 08 00:21:33
    INDEX 09 00:22:71
    INDEX 10 00:27:36
    INDEX 11 00:28:74
    INDEX 12 00:31:46
FILE "Monster Slider (Japan) (Track 26).bin" BINARY
  TRACK 26 AUDIO
    INDEX 00 00:00:00
    INDEX 01 00:02:00
    INDEX 02 00:07:53
    INDEX 03 00:09:16
    INDEX 04 00:15:04
    INDEX 05 00:16:42
    INDEX 06 00:21:03
    INDEX 07 00:22:41
    INDEX 08 00:29:50
    INDEX 09 00:31:13
    INDEX 10 00:41:26
    INDEX 11 00:42:64
    INDEX 12 00:47:29
FILE "Monster Slider (Japan) (Track 27).bin" BINARY
  TRACK 27 AUDIO
    INDEX 00 00:00:00
    INDEX 01 00:02:00
    INDEX 02 00:07:23
    INDEX 03 00:08:61
    INDEX 04 00:14:03
    INDEX 05 00:15:41
    INDEX 06 00:17:06
    INDEX 07 00:18:44
    INDEX 08 00:20:05
    INDEX 09 00:21:43
    INDEX 10 00:22:65
FILE "Monster Slider (Japan) (Track 28).bin" BINARY
  TRACK 28 AUDIO
    INDEX 00 00:00:00
    INDEX 01 00:02:00
    INDEX 02 00:05:47
    INDEX 03 00:07:10
    INDEX 04 00:13:27
    INDEX 05 00:14:65
    INDEX 06 00:16:04
    INDEX 07 00:17:42
    INDEX 08 00:23:23
    INDEX 09 00:24:61
    INDEX 10 00:30:18
    INDEX 11 00:31:56
    INDEX 12 00:32:72
    INDEX 13 00:34:35
    INDEX 14 00:38:58
    INDEX 15 00:40:21
    INDEX 16 00:44:37
FILE "Monster Slider (Japan) (Track 29).bin" BINARY
  TRACK 29 AUDIO
    INDEX 00 00:00:00
    INDEX 01 00:02:00
    INDEX 02 00:02:44
    INDEX 03 00:04:07
    INDEX 04 00:04:61
    INDEX 05 00:06:24
    INDEX 06 00:07:03
    INDEX 07 00:08:41
    INDEX 08 00:09:49
    INDEX 09 00:11:12
    INDEX 10 00:12:11
    INDEX 11 00:13:49
    INDEX 12 00:14:31
    INDEX 13 00:15:69
    INDEX 14 00:19:41
    INDEX 15 00:21:04
    INDEX 16 00:22:02
    INDEX 17 00:23:40
    INDEX 18 00:24:34
    INDEX 19 00:25:72
    INDEX 20 00:26:68
    INDEX 21 00:28:31
    INDEX 22 00:29:18
    INDEX 23 00:30:56
    INDEX 24 00:32:10
FILE "Monster Slider (Japan) (Track 30).bin" BINARY
  TRACK 30 AUDIO
    INDEX 00 00:00:00
    INDEX 01 00:02:00
    INDEX 02 00:04:51
    INDEX 03 00:06:14
    INDEX 04 00:07:02
    INDEX 05 00:08:40
    INDEX 06 00:08:72
    INDEX 07 00:10:35
    INDEX 08 00:11:00
    INDEX 09 00:12:38
    INDEX 10 00:13:23
    INDEX 11 00:14:61
    INDEX 12 00:15:43
    INDEX 13 00:17:06
    INDEX 14 00:19:42
    INDEX 15 00:21:05
    INDEX 16 00:22:07
    INDEX 17 00:23:45
    INDEX 18 00:24:44
    INDEX 19 00:26:07
    INDEX 20 00:27:03
    INDEX 21 00:28:41
    INDEX 22 00:30:01
    INDEX 23 00:31:39
    INDEX 24 00:32:57
FILE "Monster Slider (Japan) (Track 31).bin" BINARY
  TRACK 31 AUDIO
    INDEX 00 00:00:00
    INDEX 01 00:02:00
    INDEX 02 00:02:42
    INDEX 03 00:04:05
    INDEX 04 00:05:16
    INDEX 05 00:06:54
    INDEX 06 00:08:18
    INDEX 07 00:09:56
    INDEX 08 00:11:49
    INDEX 09 00:13:12
    INDEX 10 00:15:65
    INDEX 11 00:17:28
    INDEX 12 00:19:35
    INDEX 13 00:20:73
    INDEX 14 00:24:52
    INDEX 15 00:26:15
    INDEX 16 00:28:27
    INDEX 17 00:29:65
    INDEX 18 00:30:74
    INDEX 19 00:32:37
    INDEX 20 00:33:44
    INDEX 21 00:35:07
    INDEX 22 00:38:03
    INDEX 23 00:39:41
    INDEX 24 00:40:65
FILE "Monster Slider (Japan) (Track 32).bin" BINARY
  TRACK 32 AUDIO
    INDEX 00 00:00:00
    INDEX 01 00:02:00
    INDEX 02 00:02:59
    INDEX 03 00:04:22
    INDEX 04 00:05:16
    INDEX 05 00:06:54
    INDEX 06 00:07:55
    INDEX 07 00:09:18
    INDEX 08 00:10:36
    INDEX 09 00:11:74
    INDEX 10 00:13:02
    INDEX 11 00:14:40
    INDEX 12 00:15:47
    INDEX 13 00:17:10
    INDEX 14 00:21:27
    INDEX 15 00:22:65
    INDEX 16 00:23:50
    INDEX 17 00:25:13
    INDEX 18 00:25:54
    INDEX 19 00:27:17
    INDEX 20 00:28:31
    INDEX 21 00:29:69
    INDEX 22 00:30:69
    INDEX 23 00:32:32
    INDEX 24 00:33:41
FILE "Monster Slider (Japan) (Track 33).bin" BINARY
  TRACK 33 AUDIO
    INDEX 00 00:00:00
    INDEX 01 00:02:00
    INDEX 02 00:02:68
    INDEX 03 00:04:31
    INDEX 04 00:05:36
    INDEX 05 00:06:74
    INDEX 06 00:07:48
    INDEX 07 00:09:11
    INDEX 08 00:10:09
    INDEX 09 00:11:47
    INDEX 10 00:12:20
    INDEX 11 00:13:58
    INDEX 12 00:14:70
    INDEX 13 00:16:33
    INDEX 14 00:18:64
    INDEX 15 00:20:27
    INDEX 16 00:21:08
    INDEX 17 00:22:46
    INDEX 18 00:23:29
    INDEX 19 00:24:67
    INDEX 20 00:25:46
    INDEX 21 00:27:09
    INDEX 22 00:28:49
    INDEX 23 00:30:12
    INDEX 24 00:31:29
FILE "Monster Slider (Japan) (Track 34).bin" BINARY
  TRACK 34 AUDIO
    INDEX 00 00:00:00
    INDEX 01 00:02:00
    INDEX 02 00:02:68
    INDEX 03 00:04:31
    INDEX 04 00:05:53
    INDEX 05 00:07:16
    INDEX 06 00:08:21
    INDEX 07 00:09:59
    INDEX 08 00:10:49
    INDEX 09 00:12:12
    INDEX 10 00:13:13
    INDEX 11 00:14:51
    INDEX 12 00:15:69
    INDEX 13 00:17:32
    INDEX 14 00:19:68
    INDEX 15 00:21:31
    INDEX 16 00:22:30
    INDEX 17 00:23:68
    INDEX 18 00:24:57
    INDEX 19 00:26:20
    INDEX 20 00:27:07
    INDEX 21 00:28:45
    INDEX 22 00:29:33
    INDEX 23 00:30:71
    INDEX 24 00:31:65
FILE "Monster Slider (Japan) (Track 35).bin" BINARY
  TRACK 35 AUDIO
    INDEX 00 00:00:00
    INDEX 01 00:02:00
    INDEX 02 00:02:39
    INDEX 03 00:04:02
    INDEX 04 00:05:00
    INDEX 05 00:06:38
    INDEX 06 00:06:72
    INDEX 07 00:08:35
    INDEX 08 00:09:11
    INDEX 09 00:10:49
    INDEX 10 00:12:07
    INDEX 11 00:13:45
    INDEX 12 00:14:43
    INDEX 13 00:16:06
    INDEX 14 00:19:60
    INDEX 15 00:21:23
    INDEX 16 00:21:70
    INDEX 17 00:23:33
    INDEX 18 00:24:25
    INDEX 19 00:25:63
    INDEX 20 00:27:05
    INDEX 21 00:28:43
    INDEX 22 00:30:02
    INDEX 23 00:31:40
    INDEX 24 00:32:20
FILE "Monster Slider (Japan) (Track 36).bin" BINARY
  TRACK 36 AUDIO
    INDEX 00 00:00:00
    INDEX 01 00:02:00
    INDEX 02 00:03:35
    INDEX 03 00:04:73
    INDEX 04 00:06:44
    INDEX 05 00:08:07
    INDEX 06 00:09:31
    INDEX 07 00:10:69
    INDEX 08 00:12:27
    INDEX 09 00:13:65
    INDEX 10 00:15:10
    INDEX 11 00:16:48
    INDEX 12 00:20:56
    INDEX 13 00:22:19
    INDEX 14 00:28:47
    INDEX 15 00:30:10
    INDEX 16 00:32:04
    INDEX 17 00:33:42
    INDEX 18 00:36:04
    INDEX 19 00:37:42
    INDEX 20 00:39:62
    INDEX 21 00:41:25
    INDEX 22 00:45:10
    INDEX 23 00:46:48
    INDEX 24 00:48:29
FILE "Monster Slider (Japan) (Track 37).bin" BINARY
  TRACK 37 AUDIO
    INDEX 00 00:00:00
    INDEX 01 00:02:00
    INDEX 02 00:03:02
    INDEX 03 00:04:40
    INDEX 04 00:05:28
    INDEX 05 00:06:66
    INDEX 06 00:07:58
    INDEX 07 00:09:21
    INDEX 08 00:10:06
    INDEX 09 00:11:44
    INDEX 10 00:12:36
    INDEX 11 00:13:74
    INDEX 12 00:15:47
    INDEX 13 00:17:10
    INDEX 14 00:20:10
    INDEX 15 00:21:48
    INDEX 16 00:23:23
    INDEX 17 00:24:61
    INDEX 18 00:26:17
    INDEX 19 00:27:55
    INDEX 20 00:29:35
    INDEX 21 00:30:73
    INDEX 22 00:32:29
    INDEX 23 00:33:67
    INDEX 24 00:35:12
FILE "Monster Slider (Japan) (Track 38).bin" BINARY
  TRACK 38 AUDIO
    INDEX 00 00:00:00
    INDEX 01 00:02:00
    INDEX 02 00:03:07
    INDEX 03 00:04:45
    INDEX 04 00:06:25
    INDEX 05 00:07:63
    INDEX 06 00:08:36
    INDEX 07 00:09:74
    INDEX 08 00:10:67
    INDEX 09 00:12:30
    INDEX 10 00:13:11
    INDEX 11 00:14:49
    INDEX 12 00:16:25
    INDEX 13 00:17:63
    INDEX 14 00:21:02
    INDEX 15 00:22:40
    INDEX 16 00:23:53
    INDEX 17 00:25:16
    INDEX 18 00:26:10
    INDEX 19 00:27:48
    INDEX 20 00:28:44
    INDEX 21 00:30:07
    INDEX 22 00:31:38
    INDEX 23 00:33:01
    INDEX 24 00:34:38
FILE "Monster Slider (Japan) (Track 39).bin" BINARY
  TRACK 39 AUDIO
    INDEX 00 00:00:00
    INDEX 01 00:02:00
    INDEX 02 00:03:69
    INDEX 03 00:05:32
    INDEX 04 00:06:60
    INDEX 05 00:08:23
    INDEX 06 00:08:74
    INDEX 07 00:10:37
    INDEX 08 00:11:15
    INDEX 09 00:12:53
    INDEX 10 00:13:50
    INDEX 11 00:15:13
    INDEX 12 00:17:27
    INDEX 13 00:18:65
    INDEX 14 00:22:22
    INDEX 15 00:23:60
    INDEX 16 00:24:57
    INDEX 17 00:26:20
    INDEX 18 00:27:40
    INDEX 19 00:29:03
    INDEX 20 00:30:57
    INDEX 21 00:32:20
    INDEX 22 00:33:29
    INDEX 23 00:34:67
    INDEX 24 00:36:09
FILE "Monster Slider (Japan) (Track 40).bin" BINARY
  TRACK 40 AUDIO
    INDEX 00 00:00:00
    INDEX 01 00:02:00
    INDEX 02 00:02:39
    INDEX 03 00:04:02
    INDEX 04 00:05:03
    INDEX 05 00:06:41
    INDEX 06 00:07:20
    INDEX 07 00:08:58
    INDEX 08 00:09:63
    INDEX 09 00:11:26
    INDEX 10 00:12:13
    INDEX 11 00:13:51
    INDEX 12 00:14:38
    INDEX 13 00:16:01
    INDEX 14 00:17:62
    INDEX 15 00:19:25
    INDEX 16 00:20:26
    INDEX 17 00:21:64
    INDEX 18 00:23:02
    INDEX 19 00:24:40
    INDEX 20 00:25:59
    INDEX 21 00:27:22
    INDEX 22 00:28:44
    INDEX 23 00:30:07
    INDEX 24 00:31:06
FILE "Monster Slider (Japan) (Track 41).bin" BINARY
  TRACK 41 AUDIO
    INDEX 00 00:00:00
    INDEX 01 00:02:00
    INDEX 02 00:03:00
    INDEX 03 00:04:38
    INDEX 04 00:05:47
    INDEX 05 00:07:10
    INDEX 06 00:07:48
    INDEX 07 00:09:11
    INDEX 08 00:09:67
    INDEX 09 00:11:30
    INDEX 10 00:12:26
    INDEX 11 00:13:64
    INDEX 12 00:15:11
    INDEX 13 00:16:49
    INDEX 14 00:19:54
    INDEX 15 00:21:17
    INDEX 16 00:22:28
    INDEX 17 00:23:66
    INDEX 18 00:24:56
    INDEX 19 00:26:19
    INDEX 20 00:27:05
    INDEX 21 00:28:43
    INDEX 22 00:29:46
    INDEX 23 00:31:09
    INDEX 24 00:32:71
FILE "Monster Slider (Japan) (Track 42).bin" BINARY
  TRACK 42 AUDIO
    INDEX 00 00:00:00
    INDEX 01 00:02:00
    INDEX 02 00:09:56
    INDEX 03 00:11:19
    INDEX 04 00:13:27
    INDEX 05 00:14:65
    INDEX 06 00:20:50
    INDEX 07 00:22:13
    INDEX 08 00:24:03
    INDEX 09 00:25:41
    INDEX 10 00:28:70
FILE "Monster Slider (Japan) (Track 43).bin" BINARY
  TRACK 43 AUDIO
    INDEX 00 00:00:00
    INDEX 01 00:02:00
    INDEX 02 00:04:68
    INDEX 03 00:06:31
    INDEX 04 00:07:50
    INDEX 05 00:09:13
    INDEX 06 00:15:00
    INDEX 07 00:16:38
    INDEX 08 00:21:23
    INDEX 09 00:22:61
    INDEX 10 00:26:14
    INDEX 11 00:27:52
    INDEX 12 00:29:55
    INDEX 13 00:31:18
    INDEX 14 00:34:32
FILE "Monster Slider (Japan) (Track 44).bin" BINARY
  TRACK 44 AUDIO
    INDEX 00 00:00:00
    INDEX 01 00:02:00
    INDEX 02 00:04:12
    INDEX 03 00:05:50
    INDEX 04 00:08:34
    INDEX 05 00:09:72
    INDEX 06 00:10:30
    INDEX 07 00:11:68
    INDEX 08 00:12:42
    INDEX 09 00:14:05
    INDEX 10 00:18:17
    INDEX 11 00:19:55
    INDEX 12 00:21:63
FILE "Monster Slider (Japan) (Track 45).bin" BINARY
  TRACK 45 AUDIO
    INDEX 00 00:00:00
    INDEX 01 00:02:00
    INDEX 02 00:04:48
    INDEX 03 00:06:11
    INDEX 04 00:09:40
    INDEX 05 00:11:03
    INDEX 06 00:21:01
    INDEX 07 00:22:39
    INDEX 08 00:26:27
    INDEX 09 00:27:65
    INDEX 10 00:28:40
FILE "Monster Slider (Japan) (Track 46).bin" BINARY
  TRACK 46 AUDIO
    INDEX 00 00:00:00
    INDEX 01 00:02:00
    INDEX 02 00:03:52
    INDEX 03 00:05:15
    INDEX 04 00:06:12
    INDEX 05 00:07:50
    INDEX 06 00:08:63
    INDEX 07 00:10:26
    INDEX 08 00:11:16
    INDEX 09 00:12:54
    INDEX 10 00:13:27
    INDEX 11 00:14:65
    INDEX 12 00:15:70
    INDEX 13 00:17:33
    INDEX 14 00:19:35
    INDEX 15 00:20:73
    INDEX 16 00:21:64
FILE "Monster Slider (Japan) (Track 47).bin" BINARY
  TRACK 47 AUDIO
    INDEX 00 00:00:00
    INDEX 01 00:02:00
    INDEX 02 00:03:39
    INDEX 03 00:05:02
    INDEX 04 00:09:32
    INDEX 05 00:10:70
    INDEX 06 00:11:61
    INDEX 07 00:13:24
    INDEX 08 00:15:09
    INDEX 09 00:16:47
    INDEX 10 00:19:20
    INDEX 11 00:20:58
    INDEX 12 00:24:02
    INDEX 13 00:25:40
    INDEX 14 00:26:66
    INDEX 15 00:28:29
    INDEX 16 00:29:61
    INDEX 17 00:31:24
    INDEX 18 00:33:38
    INDEX 19 00:35:01
    INDEX 20 00:36:72
FILE "Monster Slider (Japan) (Track 48).bin" BINARY
  TRACK 48 AUDIO
    INDEX 00 00:00:00
    INDEX 01 00:02:00
    INDEX 02 00:12:34
    INDEX 03 00:13:72
    INDEX 04 00:18:71
    INDEX 05 00:20:34
    INDEX 06 00:27:13
    INDEX 07 00:28:51
    INDEX 08 00:29:32
    INDEX 09 00:30:70
    INDEX 10 00:32:28
FILE "Monster Slider (Japan) (Track 49).bin" BINARY
  TRACK 49 AUDIO
    INDEX 00 00:00:00
    INDEX 01 00:02:00
    INDEX 02 00:05:58
    INDEX 03 00:07:21
    INDEX 04 00:11:28
    INDEX 05 00:12:66
    INDEX 06 00:15:13
    INDEX 07 00:16:51
    INDEX 08 00:22:21
    INDEX 09 00:23:59
    INDEX 10 00:25:19
    INDEX 11 00:26:57
    INDEX 12 00:27:73
    INDEX 13 00:29:36
    INDEX 14 00:30:71
    INDEX 15 00:32:34
    INDEX 16 00:34:12
FILE "Monster Slider (Japan) (Track 50).bin" BINARY
  TRACK 50 AUDIO
    INDEX 00 00:00:00
    INDEX 01 00:02:00
    INDEX 02 00:03:41
    INDEX 03 00:05:04
    INDEX 04 00:08:34
    INDEX 05 00:09:72
    INDEX 06 00:11:36
    INDEX 07 00:12:74
    INDEX 08 00:16:23
    INDEX 09 00:17:61
    INDEX 10 00:18:63
    INDEX 11 00:20:26
    INDEX 12 00:25:07
FILE "Monster Slider (Japan) (Track 51).bin" BINARY
  TRACK 51 AUDIO
    INDEX 00 00:00:00
    INDEX 01 00:02:00
    INDEX 02 00:05:23
    INDEX 03 00:06:61
    INDEX 04 00:07:37
    INDEX 05 00:09:00
    INDEX 06 00:13:09
    INDEX 07 00:14:47
    INDEX 08 00:18:06
    INDEX 09 00:19:44
    INDEX 10 00:23:52
    INDEX 11 00:25:15
    INDEX 12 00:27:69
FILE "Monster Slider (Japan) (Track 52).bin" BINARY
  TRACK 52 AUDIO
    INDEX 00 00:00:00
    INDEX 01 00:02:00
    INDEX 02 00:04:73
    INDEX 03 00:06:36
    INDEX 04 00:12:25
    INDEX 05 00:13:63
    INDEX 06 00:17:20
    INDEX 07 00:18:58
    INDEX 08 00:22:32
    INDEX 09 00:23:70
    INDEX 10 00:29:15
    INDEX 11 00:30:53
    INDEX 12 00:33:59
FILE "Monster Slider (Japan) (Track 53).bin" BINARY
  TRACK 53 AUDIO
    INDEX 00 00:00:00
    INDEX 01 00:02:00
    INDEX 02 00:06:10
    INDEX 03 00:07:48
    INDEX 04 00:12:11
    INDEX 05 00:13:49
    INDEX 06 00:14:04
    INDEX 07 00:15:42
    INDEX 08 00:16:64
    INDEX 09 00:18:27
    INDEX 10 00:19:16
FILE "Monster Slider (Japan) (Track 54).bin" BINARY
  TRACK 54 AUDIO
    INDEX 00 00:00:00
    INDEX 01 00:02:00
    INDEX 02 00:05:44
    INDEX 03 00:07:07
    INDEX 04 00:11:25
    INDEX 05 00:12:63
    INDEX 06 00:13:55
    INDEX 07 00:15:18
    INDEX 08 00:18:01
    INDEX 09 00:19:39
    INDEX 10 00:23:40
    INDEX 11 00:25:03
    INDEX 12 00:26:01
    INDEX 13 00:27:39
    INDEX 14 00:30:69
    INDEX 15 00:32:32
    INDEX 16 00:35:30
FILE "Monster Slider (Japan) (Track 55).bin" BINARY
  TRACK 55 AUDIO
    INDEX 00 00:00:00
    INDEX 01 00:02:00
FILE "Monster Slider (Japan) (Track 56).bin" BINARY
  TRACK 56 AUDIO
    INDEX 00 00:00:00
    INDEX 01 00:02:00
FILE "Monster Slider (Japan) (Track 57).bin" BINARY
  TRACK 57 AUDIO
    INDEX 00 00:00:00
    INDEX 01 00:02:00
FILE "Monster Slider (Japan) (Track 58).bin" BINARY
  TRACK 58 AUDIO
    INDEX 00 00:00:00
    INDEX 01 00:02:00
FILE "Monster Slider (Japan) (Track 59).bin" BINARY
  TRACK 59 AUDIO
    INDEX 00 00:00:00
    INDEX 01 00:02:00
    INDEX 02 00:05:42
    INDEX 03 00:07:05
    INDEX 04 00:10:37
    INDEX 05 00:12:00
    INDEX 06 00:15:61
    INDEX 07 00:17:24
    INDEX 08 00:22:23
    INDEX 09 00:23:61
    INDEX 10 00:29:04
    INDEX 11 00:30:42
    INDEX 12 00:33:20
    INDEX 13 00:34:58
    INDEX 14 00:38:60
    INDEX 15 00:40:23
    INDEX 16 00:46:04
    INDEX 17 00:47:42
    INDEX 18 00:52:13
    INDEX 19 00:53:51
    INDEX 20 00:58:37
    INDEX 21 01:00:00
    INDEX 22 01:01:74
FILE "Monster Slider (Japan) (Track 60).bin" BINARY
  TRACK 60 AUDIO
    INDEX 00 00:00:00
    INDEX 01 00:02:00
    INDEX 02 00:07:15
FILE "Monster Slider (Japan) (Track 61).bin" BINARY
  TRACK 61 AUDIO
    INDEX 00 00:00:00
    INDEX 01 00:02:00
FILE "Monster Slider (Japan) (Track 62).bin" BINARY
  TRACK 62 AUDIO
    INDEX 00 00:00:00
    INDEX 01 00:02:00
FILE "Monster Slider (Japan) (Track 63).bin" BINARY
  TRACK 63 AUDIO
    INDEX 00 00:00:00
    INDEX 01 00:02:00
FILE "Monster Slider (Japan) (Track 64).bin" BINARY
  TRACK 64 AUDIO
    INDEX 00 00:00:00
    INDEX 01 00:02:00
FILE "Monster Slider (Japan) (Track 65).bin" BINARY
  TRACK 65 AUDIO
    INDEX 00 00:00:00
    INDEX 01 00:02:00
FILE "Monster Slider (Japan) (Track 66).bin" BINARY
  TRACK 66 AUDIO
    INDEX 00 00:00:00
    INDEX 01 00:02:00
FILE "Monster Slider (Japan) (Track 67).bin" BINARY
  TRACK 67 AUDIO
    INDEX 00 00:00:00
    INDEX 01 00:02:00
FILE "Monster Slider (Japan) (Track 68).bin" BINARY
  TRACK 68 AUDIO
    INDEX 00 00:00:00
    INDEX 01 00:02:00
FILE "Monster Slider (Japan) (Track 69).bin" BINARY
  TRACK 69 AUDIO
    INDEX 00 00:00:00
    INDEX 01 00:02:00
